<svg width="511" height="141" viewBox="0 0 511 141" fill="none" xmlns="http://www.w3.org/2000/svg">
<path d="M156.276 122.296C147.297 122.296 142.808 121.309 142.808 119.336V23.432C142.808 20.0773 144.337 18.4 147.396 18.4H173.444C188.047 18.4 198.555 21.4093 204.968 27.428C211.48 33.4467 214.736 42.1787 214.736 53.624C214.736 63.096 211.677 71.7787 205.56 79.672C202.501 83.6187 198.012 86.776 192.092 89.144C186.172 91.512 179.265 92.696 171.372 92.696V119.188C171.372 120.372 169.497 121.211 165.748 121.704C162.097 122.099 158.94 122.296 156.276 122.296ZM171.372 44.152V67.536H173.296C176.749 67.536 179.66 66.4507 182.028 64.28C184.396 62.1093 185.58 59.0507 185.58 55.104C185.58 51.1573 184.741 48.3453 183.064 46.668C181.485 44.9907 178.624 44.152 174.48 44.152H171.372ZM273.562 123.48C259.749 123.48 248.452 118.941 239.67 109.864C230.988 100.787 226.646 87.5653 226.646 70.2C226.646 52.736 231.037 39.5147 239.818 30.536C248.698 21.5573 260.094 17.068 274.006 17.068C288.017 17.068 299.314 21.508 307.898 30.388C316.482 39.1693 320.774 52.5387 320.774 70.496C320.774 88.3547 316.384 101.675 307.602 110.456C298.821 119.139 287.474 123.48 273.562 123.48ZM273.71 45.484C268.974 45.484 264.978 47.6547 261.722 51.996C258.565 56.3373 256.986 62.4547 256.986 70.348C256.986 78.1427 258.516 84.1613 261.574 88.404C264.633 92.548 268.629 94.62 273.562 94.62C278.594 94.62 282.64 92.4987 285.698 88.256C288.856 84.0133 290.434 77.9453 290.434 70.052C290.434 62.1587 288.806 56.0907 285.55 51.848C282.393 47.6053 278.446 45.484 273.71 45.484ZM362.725 119.928C362.725 121.507 358.038 122.296 348.665 122.296C339.193 122.296 334.457 121.556 334.457 120.076V23.58C334.457 20.1267 336.282 18.4 339.933 18.4H368.201C394.15 18.4 407.125 28.5133 407.125 48.74C407.125 54.8573 405.941 60.432 403.573 65.464C401.205 70.3973 397.85 74.344 393.509 77.304L412.157 108.384C411.368 110.752 408.802 113.465 404.461 116.524C398.541 120.767 393.657 122.888 389.809 122.888C385.961 122.888 383.1 121.507 381.225 118.744L367.313 86.332H362.725V119.928ZM362.725 44.596V66.796H363.465C372.838 66.796 377.525 62.8987 377.525 55.104C377.525 51.552 376.588 48.9373 374.713 47.26C372.937 45.484 369.977 44.596 365.833 44.596H362.725ZM475.058 23.284C476.341 19.8307 482.655 18.104 494.002 18.104C496.863 18.104 500.218 18.3013 504.066 18.696C508.013 19.0907 509.838 19.584 509.542 20.176L478.758 82.04V118.152C478.758 119.829 476.045 121.013 470.618 121.704C467.855 122.099 465.142 122.296 462.478 122.296C459.814 122.296 457.15 122.148 454.486 121.852C449.059 121.161 446.346 119.928 446.346 118.152V82.928L414.526 20.472C414.131 19.88 416.154 19.3373 420.594 18.844C425.034 18.252 428.783 17.956 431.842 17.956C443.978 17.956 450.638 19.732 451.822 23.284L462.626 53.476L475.058 23.284Z" fill="white"/>
<path d="M5.28668 32.6978L56.7867 3.2692C59.7073 1.60028 63.2927 1.60028 66.2133 3.2692L117.713 32.6978C120.673 34.3892 122.5 37.5369 122.5 40.9461V99.6253C122.5 103.034 120.673 106.182 117.713 107.874L66.2133 137.302C63.2927 138.971 59.7073 138.971 56.7867 137.302L5.28667 107.874C2.32671 106.182 0.5 103.034 0.5 99.6253V40.9461C0.5 37.5369 2.32672 34.3892 5.28668 32.6978Z" stroke="#9D5CFF"/>
<path d="M5.85767 43.8367C5.85767 40.2684 7.75913 36.9704 10.8473 35.1825L56.4902 8.75767C59.5894 6.96336 63.4116 6.96335 66.5109 8.75767L112.154 35.1825C115.242 36.9704 117.143 40.2684 117.143 43.8367V96.7343C117.143 100.303 115.242 103.601 112.154 105.389L66.5109 131.813C63.4116 133.608 59.5894 133.608 56.4902 131.813L10.8473 105.389C7.75914 103.601 5.85767 100.303 5.85767 96.7343V43.8367Z" fill="#BD95FA"/>
<path d="M61.4996 71.0341C61.4996 67.1859 63.7077 63.6792 67.178 62.0161L112.369 40.3595C114.581 39.2992 117.142 40.9119 117.142 43.3655V96.7348C117.142 100.303 115.241 103.601 112.153 105.389L66.5031 131.818C64.2809 133.104 61.4996 131.501 61.4996 128.933L61.4996 102.5L61.4996 71.0341Z" fill="#A66AFF"/>
<path d="M5.85767 43.3729C5.85767 40.9174 8.42255 39.3048 10.6355 40.3689L55.834 62.1025C59.2978 63.768 61.5005 67.2713 61.5005 71.1147V122.231C61.5005 122.231 61.5485 126.463 62.5343 127.887C63.3791 129.108 64.7373 129.952 65.9658 130.215C67.7403 130.596 69.5621 130.013 69.5621 130.013L66.5198 131.787C63.4165 133.597 59.5811 133.603 56.4721 131.803L10.8473 105.389C7.75914 103.601 5.85767 100.303 5.85767 96.7345V43.3729Z" fill="#8B3DFF"/>
</svg>
